<?xml version="1.0" encoding="UTF-8" standalone="no"?>
<svg xmlns="http://www.w3.org/2000/svg" viewBox="0 0 24 24"><title>Facebook</title><g id="Facebook"><g id="_Group_" data-name="&lt;Group&gt;"><path id="_Path_" data-name="&lt;Path&gt;" d="M21,1.5H3A1.5,1.5,0,0,0,1.5,3V21A1.5,1.5,0,0,0,3,22.5h8.5v-8h-2v-3h2v-2a4,4,0,0,1,4-4h3v3h-3a1,1,0,0,0-1,1v2h4l-.5,3H14.5v8H21A1.5,1.5,0,0,0,22.5,21V3A1.5,1.5,0,0,0,21,1.5Z" style="fill:none;stroke:#ffffff;stroke-linecap:round;stroke-linejoin:round"/></g></g>
	<metadata>
		<rdf:RDF xmlns:rdf="http://www.w3.org/1999/02/22-rdf-syntax-ns#" xmlns:rdfs="http://www.w3.org/2000/01/rdf-schema#" xmlns:dc="http://purl.org/dc/elements/1.1/">
			<rdf:Description about="https://iconscout.com/legal#licenses" dc:title="social; media; social media; logo; facebook" dc:description="social; media; social media; logo; facebook" dc:publisher="Iconscout" dc:date="2017-02-21" dc:format="image/svg+xml" dc:language="en">
				<dc:creator>
					<rdf:Bag>
						<rdf:li>Alpár - Etele Méder</rdf:li>
					</rdf:Bag>
				</dc:creator>
			</rdf:Description>
		</rdf:RDF>
    </metadata></svg>
