<?xml version="1.0" encoding="UTF-8" standalone="no"?>
<svg xmlns="http://www.w3.org/2000/svg" viewBox="0 0 24 24"><title>Twitter</title><g id="Twitter"><g id="_Group_" data-name="&lt;Group&gt;"><path id="_Path_" data-name="&lt;Path&gt;" d="M2,3.5a13.62,13.62,0,0,0,10,5c-.26-1.06-.28-3.94,1.74-5.14A5.24,5.24,0,0,1,16.5,2.5,4.65,4.65,0,0,1,19.91,4a10.5,10.5,0,0,0,3-1.14,4.57,4.57,0,0,1-2,2.57,8.77,8.77,0,0,0,2.66-.66,9.3,9.3,0,0,1-2.38,2.43c.71,6.37-5,14.29-13.12,14.29a14.76,14.76,0,0,1-7.5-2,9.3,9.3,0,0,0,7-2,5.82,5.82,0,0,1-5-3.5c1,.32,1.95.48,2.5,0A5.41,5.41,0,0,1,1,9a3.51,3.51,0,0,0,2.5,1A5,5,0,0,1,2,3.5Z" style="fill:none;stroke:#ffffff;stroke-linecap:round;stroke-linejoin:round"/></g></g>
	<metadata>
		<rdf:RDF xmlns:rdf="http://www.w3.org/1999/02/22-rdf-syntax-ns#" xmlns:rdfs="http://www.w3.org/2000/01/rdf-schema#" xmlns:dc="http://purl.org/dc/elements/1.1/">
			<rdf:Description about="https://iconscout.com/legal#licenses" dc:title="social; media; social media; logo; twitter" dc:description="social; media; social media; logo; twitter" dc:publisher="Iconscout" dc:date="2017-02-21" dc:format="image/svg+xml" dc:language="en">
				<dc:creator>
					<rdf:Bag>
						<rdf:li>Alpár - Etele Méder</rdf:li>
					</rdf:Bag>
				</dc:creator>
			</rdf:Description>
		</rdf:RDF>
    </metadata></svg>
